<svg xmlns="http://www.w3.org/2000/svg" xmlns:xlink="http://www.w3.org/1999/xlink" width="48" height="34" viewBox="0 0 48 34"><defs><clipPath id="clip-path"><rect id="Rectangle_187" width="48" height="34" fill="none" data-name="Rectangle 187" transform="translate(0 0)"/></clipPath></defs><g id="Group_197" data-name="Group 197" transform="translate(0 0)"><g id="Group_196" clip-path="url(#clip-path)" data-name="Group 196"><path id="Path_183" fill="#bdbdbd" d="M7.039,34A24.047,24.047,0,0,1,7,.036l1.41,1.407a22.052,22.052,0,0,0,.033,31.147Z" data-name="Path 183" transform="translate(0 0)"/><path id="Path_184" fill="#bdbdbd" d="M7.039,34A24.047,24.047,0,0,1,7,.036l1.41,1.407a22.052,22.052,0,0,0,.033,31.147Z" data-name="Path 184" transform="translate(0 0)"/><path id="Path_185" fill="#bdbdbd" d="M41,33.963l-1.41-1.407A22.054,22.054,0,0,0,39.554,1.41L40.96,0A24.047,24.047,0,0,1,41,33.963" data-name="Path 185" transform="translate(0 0)"/><path id="Path_186" fill="#bdbdbd" d="M41,33.963l-1.41-1.407A22.054,22.054,0,0,0,39.554,1.41L40.96,0A24.047,24.047,0,0,1,41,33.963" data-name="Path 186" transform="translate(0 0)"/><path id="Path_187" fill="#ec5b29" d="M32.6,20.621A9.332,9.332,0,0,0,19.369,8.908L18.211,6.884A11.663,11.663,0,0,1,34.637,21.8l1.566.9-4.859,2.58-.193-5.494,1.454.838ZM15.4,13.389A9.332,9.332,0,0,0,28.632,25.1l1.157,2.026A11.663,11.663,0,0,1,13.364,12.215l-1.567-.9,4.86-2.58.192,5.494L15.4,13.39ZM25.651,20.3l-3.3-3.3-3.3,3.3L17.4,18.653l4.95-4.944,3.3,3.3,3.3-3.3,1.65,1.648Z" data-name="Path 187" transform="translate(0 -0.006)"/></g></g></svg>